<svg width="101"  viewBox="0 0 101 101" fill="none" xmlns="http://www.w3.org/2000/svg">
<rect width="101" height="101" rx="50.5" fill="#E2E6EE"/>
<path d="M53.1302 74.1719H42.6094V42.6094H53.1302V47.8698C55.3728 45.0167 58.7737 43.3158 62.4017 43.2327C68.9262 43.269 74.1908 48.5783 74.1719 55.1029V74.1719H63.651V56.418C63.2303 53.479 60.7098 51.2985 57.741 51.3048C56.4424 51.3459 55.2166 51.9145 54.3465 52.8793C53.4764 53.8442 53.0372 55.1221 53.1302 56.418V74.1719ZM37.349 74.1719H26.8281V42.6094H37.349V74.1719ZM32.0885 37.349C29.1833 37.349 26.8281 34.9938 26.8281 32.0885C26.8281 29.1833 29.1833 26.8281 32.0885 26.8281C34.9938 26.8281 37.349 29.1833 37.349 32.0885C37.349 33.4837 36.7947 34.8217 35.8082 35.8082C34.8217 36.7947 33.4837 37.349 32.0885 37.349Z" fill="#79819A"/>
</svg>
