<svg width="101" height="101" viewBox="0 0 101 101" fill="none" xmlns="http://www.w3.org/2000/svg">
<path d="M0 50.5C0 22.6096 22.6096 0 50.5 0V0C78.3904 0 101 22.6096 101 50.5V50.5C101 78.3904 78.3904 101 50.5 101V101C22.6096 101 0 78.3904 0 50.5V50.5Z" fill="#E2E6EE"/>
<path d="M68.9045 71.5415C46.4646 71.5734 29.434 54.3387 29.458 32.0951C29.458 30.6424 30.6356 29.4583 32.0882 29.4583H39.0303C40.3338 29.4583 41.4411 30.416 41.6325 31.7053C42.0912 34.7955 42.9909 37.8038 44.3042 40.6385L44.5745 41.2219C44.9503 42.033 44.6955 42.9968 43.968 43.5164C41.8181 45.0517 40.9965 48.1421 42.6714 50.5535C44.7731 53.5795 47.4225 56.2283 50.4478 58.329C52.859 60.0034 55.9489 59.1819 57.4842 57.0324C58.0041 56.3045 58.9684 56.0497 59.7801 56.4256L60.3608 56.6946C63.1957 58.0078 66.2042 58.9076 69.2947 59.3662C70.5841 59.5576 71.5413 60.6648 71.5413 61.9683V68.9113C71.5413 70.364 70.3609 71.5415 68.9083 71.5415L68.9045 71.5415Z" fill="#79819A"/>
</svg>
