<svg width="101" viewBox="0 0 101 102" fill="none" xmlns="http://www.w3.org/2000/svg">
<g clip-path="url(#clip0_33_2883)">
<rect y="0.875" width="101" height="101" fill="#E2E6EE"/>
<g clip-path="url(#clip1_33_2883)">
<path fill-rule="evenodd" clip-rule="evenodd" d="M50.5 22.9688C34.8055 22.9688 22.0938 35.6805 22.0938 51.375C22.0938 63.9448 30.225 74.5616 41.5165 78.3254C42.9368 78.574 43.4695 77.7218 43.4695 76.9761C43.4695 76.3015 43.4339 74.0645 43.4339 71.6855C36.2969 72.9993 34.4505 69.9456 33.8823 68.3477C33.5628 67.5311 32.178 65.01 30.9707 64.3353C29.9765 63.8027 28.5562 62.4889 30.9352 62.4534C33.1722 62.4179 34.77 64.5129 35.3027 65.3651C37.8592 69.6615 41.9426 68.4543 43.576 67.7086C43.8245 65.8622 44.5702 64.6194 45.3869 63.9093C39.0665 63.1991 32.462 60.7491 32.462 49.8837C32.462 46.7945 33.5628 44.2379 35.3737 42.2495C35.0896 41.5393 34.0954 38.6277 35.6577 34.7218C35.6577 34.7218 38.0368 33.9762 43.4695 37.6335C45.742 36.9943 48.1565 36.6748 50.571 36.6748C52.9855 36.6748 55.4001 36.9943 57.6726 37.6335C63.1053 33.9407 65.4843 34.7218 65.4843 34.7218C67.0466 38.6277 66.0524 41.5393 65.7684 42.2495C67.5793 44.2379 68.68 46.759 68.68 49.8837C68.68 60.7846 62.04 63.1991 55.7196 63.9093C56.7494 64.7969 57.6371 66.5013 57.6371 69.1644C57.6371 72.9637 57.6016 76.0174 57.6016 76.9761C57.6016 77.7218 58.1342 78.6095 59.5545 78.3254C65.1936 76.4215 70.0936 72.7973 73.5651 67.9627C77.0365 63.1282 78.9046 57.3268 78.9062 51.375C78.9063 35.6805 66.1945 22.9688 50.5 22.9688Z" fill="#79819A"/>
</g>
</g>
<defs>
<clipPath id="clip0_33_2883">
<rect y="0.875" width="101" height="101" rx="50.5" fill="white"/>
</clipPath>
<clipPath id="clip1_33_2883">
<rect width="56.8125" height="56.8125" fill="white" transform="translate(22.0938 22.9688)"/>
</clipPath>
</defs>
</svg>
