<svg viewBox="0 0 16 16" fill="none" xmlns="http://www.w3.org/2000/svg">
<rect width="16" height="16" rx="8" fill="#E2E6EE"/>
<path d="M6.52708 11.5563C5.68451 11.5563 4.9249 11.0487 4.60241 10.2703C4.27992 9.49191 4.45805 8.59588 5.05374 8.00001L5.93791 7.11584L6.52708 7.70501L5.64333 8.58876C5.32752 8.90457 5.20418 9.36487 5.31978 9.79627C5.43537 10.2277 5.77233 10.5646 6.20373 10.6802C6.63514 10.7958 7.09544 10.6725 7.41124 10.3567L8.29499 9.47293L8.88416 10.0625L8.00041 10.9463C7.61044 11.3381 7.07993 11.5578 6.52708 11.5563ZM6.82166 9.76751L6.23249 9.17834L9.17874 6.23209L9.76791 6.82126L6.82208 9.76709L6.82166 9.76751ZM10.0629 8.88376L9.47333 8.29459L10.3571 7.41084C10.6772 7.09598 10.8038 6.63362 10.6888 6.19958C10.5739 5.76555 10.2349 5.42653 9.80091 5.31144C9.36691 5.19636 8.90452 5.32289 8.58958 5.64293L7.70541 6.52668L7.11624 5.93751L8.00041 5.05334C8.81503 4.24583 10.1291 4.24871 10.9402 5.05978C11.7513 5.87085 11.7542 7.18497 10.9467 7.99959L10.0629 8.88334V8.88376Z" fill="#79819A"/>
</svg>
